PathFileType	4	(X/Y/Z)	/Users/itak/Documents/Research/Walk-IL/dataset/trc/00147_00007.trc
DataRate	CameraRate	NumFrames	NumMarkers	Units	OrigDataRate	OrigDataStartFrame	OrigNumFrames
100.000000	100.000000	4	53	mm	100.000000	65	523
Frame#	Time	RPSI			LPSI			L3			STRN			T10			C7			CLAV			RBAK			LBAK			LSHO			LUPA			LAEL			LAOL			LWTS			LWPS			LFRA			LIFD			LHPS			LHTS			RSHO			RUPA			RAEL			RAOL			RWTS			RWPS			RFRA			RIFD			RHTS			RHPS			RBHD			LFHD			RFHD			LBHD			LHIP			RHIP			RASI			LASI			LKNE			LTHI			LANK			LTIP			LTOE			LMT1			LMT5			LHEE			RKNE			RTHI			RANK			RTIP			RTOE			RMT1			RMT5			RHEE			
		X1	Y1	Z1	X2	Y2	Z2	X3	Y3	Z3	X4	Y4	Z4	X5	Y5	Z5	X6	Y6	Z6	X7	Y7	Z7	X8	Y8	Z8	X9	Y9	Z9	X10	Y10	Z10	X11	Y11	Z11	X12	Y12	Z12	X13	Y13	Z13	X14	Y14	Z14	X15	Y15	Z15	X16	Y16	Z16	X17	Y17	Z17	X18	Y18	Z18	X19	Y19	Z19	X20	Y20	Z20	X21	Y21	Z21	X22	Y22	Z22	X23	Y23	Z23	X24	Y24	Z24	X25	Y25	Z25	X26	Y26	Z26	X27	Y27	Z27	X28	Y28	Z28	X29	Y29	Z29	X30	Y30	Z30	X31	Y31	Z31	X32	Y32	Z32	X33	Y33	Z33	X34	Y34	Z34	X35	Y35	Z35	X36	Y36	Z36	X37	Y37	Z37	X38	Y38	Z38	X39	Y39	Z39	X40	Y40	Z40	X41	Y41	Z41	X42	Y42	Z42	X43	Y43	Z43	X44	Y44	Z44	X45	Y45	Z45	X46	Y46	Z46	X47	Y47	Z47	X48	Y48	Z48	X49	Y49	Z49	X50	Y50	Z50	X51	Y51	Z51	X52	Y52	Z52	X53	Y53	Z53	

66	0.65	-889.3743286132812	1132.786865234375	1279.067626953125	-891.0405883789062	1133.717163085938	1145.654174804688	-896.5105590820312	1164.465209960938	1210.230590820312	-687.2443237304688	1360.024169921875	1207.756225585938	-938.7562255859375	1312.475341796875	1207.289184570312	-904.5113525390625	1604.628173828125	1192.560546875	-725.2418212890625	1494.072998046875	1203.38037109375	-958.9939575195312	1420.332885742188	1280.802856445312	-910.426025390625	1583.565307617188	1090.2626953125	-822.4795532226562	1568.512573242188	1022.534057617188	-839.6787719726562	1434.575561523438	954.9425048828125	-815.8627319335938	1213.62548828125	941.7462158203125	-883.6224365234375	1202.401611328125	997.2794799804688	-708.7182006835938	961.28955078125	1000.801208496094	-787.91259765625	931.743896484375	970.5572509765625	-794.6331176757812	1097.698486328125	943.651123046875	-687.8208618164062	769.791015625	1027.751098632812	-756.6206665039062	857.7056274414062	975.1826171875	-690.6124267578125	873.0732421875	994.0505981445312	-852.2476806640625	1585.646118164062	1374.895263671875	-869.87109375	1512.631591796875	1439.246459960938	-872.3809204101562	1217.16650390625	1457.93359375	-877.8202514648438	1216.7705078125	1362.27587890625	-718.4789428710938	977.944580078125	1443.96435546875	-793.0680541992188	959.8858642578125	1476.604248046875	-845.8172607421875	1144.37109375	1474.012451171875	-686.9795532226562	784.7080078125	1427.319213867188	-685.2701416015625	870.7294311523438	1450.232299804688	-752.0906372070312	860.9976196289062	1478.8466796875	-859.822265625	1781.373901367188	1271.3193359375	-701.5147094726562	1841.7412109375	1129.922607421875	-695.808349609375	1849.256958007812	1260.096557617188	-872.6463623046875	1777.151977539062	1136.952880859375	-802.1607055664062	1039.533081054688	1038.166625976562	-760.5654907226562	1034.576293945312	1395.78515625	-680.4288330078125	1105.630981445312	1341.762573242188	-691.123291015625	1103.14501953125	1076.19970703125	-793.408203125	538.0631103515625	1063.439331054688	-807.0089111328125	685.0789794921875	1037.582885742188	-913.4955444335938	39.41704559326172	1072.504028320312	-900.9465942382812	295.635498046875	1040.173828125	-680.3342895507812	39.82621383666992	1125.256469726562	-761.80078125	42.52893829345703	1159.936157226562	-786.6378784179688	39.70531463623047	1044.950317382812	-981.7647094726562	41.7728271484375	1136.520385742188	-788.3203125	542.5620727539062	1369.067138671875	-748.8558349609375	821.079833984375	1390.6123046875	-902.5454711914062	34.85942459106445	1360.723388671875	-820.3988037109375	412.080078125	1381.961547851562	-671.3682250976562	46.71990203857422	1303.024536132812	-732.4842529296875	37.57026672363281	1263.216796875	-767.938232421875	43.18655395507812	1380.402954101562	-961.5104370117188	35.64591979980469	1313.092651367188	
67	0.66	-889.166015625	1132.819580078125	1279.175537109375	-890.7950439453125	1133.738647460938	1145.73974609375	-896.2340698242188	1164.532470703125	1210.3095703125	-686.9087524414062	1360.01318359375	1207.895629882812	-938.4841918945312	1312.444458007812	1207.381713867188	-904.2109985351562	1604.599365234375	1192.65380859375	-725.02392578125	1494.034301757812	1203.509033203125	-958.719970703125	1420.283569335938	1280.920654296875	-910.1314086914062	1583.5634765625	1090.4111328125	-822.2149047851562	1568.527221679688	1022.666015625	-839.375	1434.608154296875	955.070556640625	-815.571044921875	1213.641235351562	941.8235473632812	-883.38330078125	1202.442504882812	997.3209838867188	-708.5634765625	961.2569580078125	1001.050415039062	-787.7544555664062	931.7380981445312	970.6593627929688	-794.2861938476562	1097.698608398438	943.7548217773438	-687.7960205078125	769.7257690429688	1027.999633789062	-756.4434204101562	857.701416015625	975.3900146484375	-690.4862060546875	873.0306396484375	994.3045654296875	-852.0029296875	1585.6083984375	1375.037475585938	-869.6371459960938	1512.56787109375	1439.363891601562	-872.0789184570312	1217.122314453125	1458.064086914062	-877.4872436523438	1216.744506835938	1362.350219726562	-718.1978149414062	977.8955078125	1444.044189453125	-792.7888793945312	959.8129272460938	1476.685424804688	-845.537841796875	1144.337524414062	1474.092407226562	-686.6124877929688	784.6648559570312	1427.435546875	-684.9856567382812	870.734619140625	1450.303588867188	-751.7322387695312	860.9063720703125	1479.044067382812	-859.5521240234375	1781.368530273438	1271.493896484375	-701.2548217773438	1841.7744140625	1130.1416015625	-695.5380249023438	1849.219604492188	1260.337280273438	-872.3687744140625	1777.177001953125	1137.1298828125	-802.0148315429688	1039.513671875	1038.30517578125	-760.3671264648438	1034.564697265625	1395.91357421875	-680.2157592773438	1105.578735351562	1341.87109375	-690.882080078125	1103.091064453125	1076.300048828125	-793.39404296875	538.046630859375	1063.450927734375	-806.9745483398438	685.071044921875	1037.61669921875	-913.50146484375	39.39921951293945	1072.486694335938	-900.9545288085938	295.6260070800781	1040.169067382812	-680.3407592773438	39.82911682128906	1125.259033203125	-761.8167724609375	42.5349006652832	1159.922729492188	-786.6370849609375	39.69961166381836	1044.931640625	-981.7665405273438	41.75285339355469	1136.509643554688	-788.2525024414062	542.5596923828125	1369.117065429688	-749.1583862304688	821.0379028320312	1390.939819335938	-902.547607421875	34.86079788208008	1360.723388671875	-820.3271484375	412.0702514648438	1382.01171875	-671.3753051757812	46.72705078125	1303.025146484375	-732.4868774414062	37.58177185058594	1263.217163085938	-767.9337768554688	43.18894577026367	1380.403564453125	-961.5084228515625	35.68066787719727	1313.081176757812	
68	0.67	-888.9238891601562	1132.847534179688	1279.328857421875	-890.5537719726562	1133.753540039062	1145.82470703125	-895.9682006835938	1164.600219726562	1210.385375976562	-686.5711059570312	1359.997436523438	1208.048461914062	-938.2109985351562	1312.415649414062	1207.48095703125	-903.8909912109375	1604.56591796875	1192.750732421875	-724.786376953125	1493.994995117188	1203.650268554688	-958.443603515625	1420.238037109375	1281.0380859375	-909.8258056640625	1583.562255859375	1090.558959960938	-821.9287109375	1568.539916992188	1022.806457519531	-839.0531616210938	1434.642578125	955.2025146484375	-815.254150390625	1213.654052734375	941.9022216796875	-883.1519165039062	1202.486083984375	997.3624877929688	-708.4113159179688	961.2151489257812	1001.298461914062	-787.591796875	931.7254028320312	970.763427734375	-793.9227294921875	1097.703002929688	943.8562622070312	-687.7939453125	769.6520385742188	1028.2509765625	-756.264892578125	857.68896484375	975.5997924804688	-690.3523559570312	872.9871826171875	994.55419921875	-851.7567749023438	1585.571899414062	1375.1865234375	-869.3994750976562	1512.509521484375	1439.491821289062	-871.7725830078125	1217.074462890625	1458.195556640625	-877.1474609375	1216.717895507812	1362.424072265625	-717.8847045898438	977.8642578125	1444.135131835938	-792.4945068359375	959.7531127929688	1476.756103515625	-845.266845703125	1144.300048828125	1474.169067382812	-686.181884765625	784.634521484375	1427.550170898438	-684.67041015625	870.7465209960938	1450.394409179688	-751.3443603515625	860.8379516601562	1479.23095703125	-859.269287109375	1781.361694335938	1271.677612304688	-700.9784545898438	1841.805297851562	1130.362670898438	-695.2576904296875	1849.184936523438	1260.578979492188	-872.0833740234375	1777.19580078125	1137.3125	-801.8463745117188	1039.4873046875	1038.450073242188	-760.1767578125	1034.552856445312	1396.040161132812	-680.0032958984375	1105.5224609375	1341.989379882812	-690.636962890625	1103.024169921875	1076.402587890625	-793.389892578125	538.0272827148438	1063.44775390625	-806.9461059570312	685.0623168945312	1037.641723632812	-913.5123291015625	39.37409591674805	1072.463623046875	-900.9696655273438	295.612548828125	1040.153564453125	-680.3493041992188	39.83166122436523	1125.257202148438	-761.8326416015625	42.54524993896484	1159.903686523438	-786.6359252929688	39.69283294677734	1044.909301757812	-981.7689819335938	41.72916030883789	1136.491821289062	-788.166748046875	542.56103515625	1369.173217773438	-749.5576782226562	820.9913330078125	1391.322143554688	-902.5493774414062	34.86162567138672	1360.72412109375	-820.2406616210938	412.0599670410156	1382.065307617188	-671.3839721679688	46.73613739013672	1303.027221679688	-732.4905395507812	37.59402465820312	1263.218139648438	-767.9307861328125	43.19039916992188	1380.406372070312	-961.507080078125	35.70929336547852	1313.073120117188	
69	0.68	-888.6521606445312	1132.872802734375	1279.522705078125	-890.313720703125	1133.7607421875	1145.912231445312	-895.7088012695312	1164.665893554688	1210.463989257812	-686.2355346679688	1359.9775390625	1208.214477539062	-937.9334106445312	1312.385498046875	1207.589721679688	-903.5558471679688	1604.529418945312	1192.854614257812	-724.5260620117188	1493.954345703125	1203.807495117188	-958.1636962890625	1420.197387695312	1281.154418945312	-909.5136108398438	1583.5595703125	1090.704467773438	-821.6170043945312	1568.548095703125	1022.959533691406	-838.7153930664062	1434.674194335938	955.3383178710938	-814.9093627929688	1213.661499023438	941.9877319335938	-882.9232177734375	1202.528442382812	997.4080200195312	-708.2613525390625	961.1624145507812	1001.5390625	-787.4205932617188	931.7047729492188	970.8704223632812	-793.5491333007812	1097.708374023438	943.9585571289062	-687.80810546875	769.5706176757812	1028.501342773438	-756.0863037109375	857.6693115234375	975.8001708984375	-690.2092895507812	872.9417724609375	994.798095703125	-851.51025390625	1585.536499023438	1375.3427734375	-869.157958984375	1512.456909179688	1439.631591796875	-871.4695434570312	1217.020141601562	1458.32421875	-876.8056640625	1216.688598632812	1362.498779296875	-717.537109375	977.8499755859375	1444.239379882812	-792.1807250976562	959.7074584960938	1476.818969726562	-845.001708984375	1144.255493164062	1474.2470703125	-685.6934204101562	784.6203002929688	1427.656372070312	-684.3206176757812	870.7626953125	1450.502319335938	-750.9349365234375	860.7938232421875	1479.390991210938	-858.9755249023438	1781.354248046875	1271.869873046875	-700.681640625	1841.832641601562	1130.58740234375	-694.96875	1849.151977539062	1260.822509765625	-871.78857421875	1777.210205078125	1137.501708984375	-801.6458129882812	1039.455932617188	1038.602416992188	-759.99267578125	1034.5400390625	1396.16650390625	-679.79052734375	1105.462890625	1342.1171875	-690.3895874023438	1102.94384765625	1076.513305664062	-793.3942260742188	538.0053100585938	1063.43017578125	-806.920654296875	685.052490234375	1037.659790039062	-913.5287475585938	39.34130859375	1072.434692382812	-900.9925537109375	295.5973510742188	1040.129028320312	-680.3604736328125	39.83426666259766	1125.250610351562	-761.8483276367188	42.55958557128906	1159.880004882812	-786.6358642578125	39.68400573730469	1044.883666992188	-981.771728515625	41.70298004150391	1136.4658203125	-788.05712890625	542.565185546875	1369.236938476562	-749.9603881835938	820.9434204101562	1391.721557617188	-902.5510864257812	34.86232376098633	1360.726318359375	-820.1361083984375	412.0480041503906	1382.121704101562	-671.3944091796875	46.74664688110352	1303.031616210938	-732.4952392578125	37.60672378540039	1263.220336914062	-767.92919921875	43.19101333618164	1380.411499023438	-961.5062866210938	35.72577285766602	1313.072143554688	
